<svg width="48" height="48" viewBox="0 0 48 48" fill="none" xmlns="http://www.w3.org/2000/svg">
<g clip-path="url(#clip0_2152_306)">
<path d="M24 48C17.6348 48 11.5303 45.4714 7.02944 40.9706C2.52856 36.4697 0 30.3652 0 24C0 17.6348 2.52856 11.5303 7.02944 7.02944C11.5303 2.52856 17.6348 0 24 0C30.3652 0 36.4697 2.52856 40.9706 7.02944C45.4714 11.5303 48 17.6348 48 24C48 30.3652 45.4714 36.4697 40.9706 40.9706C36.4697 45.4714 30.3652 48 24 48ZM42.6 28.8C43.4129 25.6516 43.4129 22.3484 42.6 19.2H33.432C33.653 22.3962 33.653 25.6038 33.432 28.8H42.6ZM40.632 33.6H32.904C32.503 36.4931 31.7369 39.3236 30.624 42.024C34.8401 40.4687 38.3802 37.489 40.632 33.6ZM19.392 28.8H28.608C28.8686 25.6053 28.8686 22.3947 28.608 19.2H19.392C19.1314 22.3947 19.1314 25.6053 19.392 28.8ZM19.992 33.6C20.976 39.36 22.704 43.2 24 43.2C25.296 43.2 27.024 39.36 28.008 33.6H19.992ZM5.4 28.8H14.568C14.347 25.6038 14.347 22.3962 14.568 19.2H5.4C4.58709 22.3484 4.58709 25.6516 5.4 28.8ZM7.368 33.6C9.61982 37.489 13.1599 40.4687 17.376 42.024C16.368 39.72 15.6 36.84 15.096 33.6H7.368ZM40.632 14.4C38.3802 10.5111 34.8401 7.53129 30.624 5.976C31.632 8.28 32.4 11.16 32.904 14.4H40.632ZM19.992 14.4H28.008C27.024 8.64 25.296 4.8 24 4.8C22.704 4.8 20.976 8.64 19.992 14.4ZM7.368 14.4H15.096C15.576 11.16 16.368 8.28 17.376 5.976C13.1599 7.53129 9.61982 10.5111 7.368 14.4Z" fill="white"/>
</g>
<defs>
<clipPath id="clip0_2152_306">
<rect width="48" height="48" fill="white"/>
</clipPath>
</defs>
</svg>
