<svg width="59" height="59" viewBox="0 0 59 59" fill="none" xmlns="http://www.w3.org/2000/svg">
<path d="M27.7394 13.7545L16.9904 25.702C16.5663 26.1721 16.5847 26.9004 17.0364 27.3521C19.8482 30.1639 24.4114 30.1639 27.2232 27.3521L30.1547 24.4206C30.5419 24.0334 31.0305 23.8214 31.5283 23.7845C32.1552 23.7292 32.8005 23.9412 33.2799 24.4206L49.5602 40.5626L56.0502 35.4001V8.8501L45.7252 14.7501L43.5311 13.2843C42.0754 12.3161 40.3659 11.7997 38.6175 11.8001H32.1275C32.0261 11.8001 31.9155 11.8001 31.8141 11.8093C30.2561 11.8923 28.7903 12.5929 27.7394 13.7545ZM13.6993 22.7428L23.5449 11.8001H19.8943C17.5435 11.8001 15.2941 12.7312 13.6347 14.3906L13.2752 14.7501L2.9502 8.8501V35.4001L17.3683 47.4121C19.4886 49.1821 22.1621 50.1501 24.9185 50.1501H26.3658L25.7205 49.5048C24.8539 48.6382 24.8539 47.237 25.7205 46.3796C26.5871 45.5223 27.9883 45.5131 28.8457 46.3796L32.6253 50.1593H33.455C35.2158 50.1593 36.9397 49.7629 38.5069 49.0254L36.0455 46.5548C35.1789 45.6882 35.1789 44.287 36.0455 43.4296C36.9121 42.5723 38.3133 42.5631 39.1707 43.4296L42.1207 46.3796L43.7339 44.7664C44.5544 43.9459 44.7941 42.7567 44.4346 41.7149L31.7219 29.1037L30.3483 30.4773C25.8035 35.0221 18.4469 35.0221 13.9021 30.4773C11.7818 28.357 11.6988 24.9553 13.6993 22.7335V22.7428Z" fill="white"/>
</svg>
