<svg width="30" height="40" viewBox="0 0 45 60" fill="none" xmlns="http://www.w3.org/2000/svg">
<path d="M35.4262 43.6255H9.37523C9.39115 40.8901 9.38758 39.427 9.16257 38.0764C8.40501 35.202 7.52007 33.9644 5.54733 32.0724C2.93511 29.4219 1.99078 27.9713 0.975123 25.4317C0.218776 22.6525 -0.0802112 21.039 0.018149 17.8813C0.266635 15.1544 0.682847 13.7306 1.82577 11.3315C3.36418 8.69424 4.4583 7.31884 7.03596 5.1456C10.1989 3.01174 12.1985 1.99824 16.4994 0.779091C21.5081 -0.347476 24.4643 -0.248658 29.6843 1.052C35.0981 2.77407 37.6571 4.46416 41.3807 8.78436C44.1147 12.4578 45.0712 14.8386 44.9959 20.0645C44.798 24.8631 43.574 27.4024 39.6794 31.7085C38.4388 33.0069 37.7228 33.9415 36.3832 36.0751C35.5787 37.4382 35.4936 39.5801 35.4262 43.6255Z" fill="#FBF8F2"/>
<path d="M33.1932 45.445H11.6081V48.6289C11.8751 49.6216 12.8263 50.4439 13.9474 50.5392H31.1729C32.0604 50.4028 33.0115 49.5919 33.1932 48.6289V45.445Z" fill="#FBF8F2"/>
<path d="M31.9172 52.3586H12.9904C13.1752 53.7066 13.5066 54.4081 14.479 55.6335C15.3189 56.4211 16.0462 56.8429 17.9879 57.2709C18.3801 58.1037 18.6037 58.4723 19.0512 58.9084C19.7581 59.4353 20.1706 59.6813 20.9652 60H23.9424C24.9391 59.6432 25.4591 59.3797 26.2817 58.7264C26.6936 58.1962 26.837 57.871 27.026 57.2709C28.4513 57.0448 29.2035 56.7168 30.4286 55.6335C31.6467 54.4018 31.9368 53.6827 31.9172 52.3586Z" fill="#FBF8F2"/>
</svg>
