<svg width="59" height="59" viewBox="0 0 59 59" fill="none" xmlns="http://www.w3.org/2000/svg">
<path d="M30.7288 16.9625C35.1046 16.9625 36.7271 19.0521 36.8746 22.125H42.3075C42.1355 17.8967 39.5542 14.0125 34.4163 12.7587V7.375H27.0413V12.685C26.0826 12.8817 25.1976 13.2012 24.3371 13.57L28.0492 17.2821C28.8359 17.0854 29.7455 16.9625 30.7288 16.9625ZM13.4467 9.63667L9.98047 13.1029L18.4371 21.5596C18.4371 26.6729 22.2721 29.4754 28.0492 31.1717L36.678 39.8004C35.8421 41.005 34.0967 42.0375 30.7288 42.0375C25.6646 42.0375 23.6734 39.7758 23.403 36.875H17.9946C18.2896 42.2588 22.3213 45.2825 27.0413 46.2904V51.625H34.4163V46.3396C36.7763 45.8971 38.9151 44.9875 40.4638 43.5862L45.9213 49.0438L49.3876 45.5775L13.4467 9.63667Z" fill="white"/>
</svg>
