<svg width="1276" height="332" viewBox="0 0 1276 332" fill="none" xmlns="http://www.w3.org/2000/svg">
<path d="M120 12.2603C72.6941 -8.68838 43.5958 -2.42843 -2 28.2603V334.76H1278.5V83.7602C1232.97 81.6414 1213.08 91.6646 1181.5 117.26C1153.66 144.965 1142.15 163.593 1131.5 204.26C1105.81 194.811 1092.1 196.46 1068.5 208.76C1050.75 185.715 1037.49 178.595 1006 179.76C984.475 145.733 963.73 134.96 920 147.76C897.883 156.758 881.515 170.054 874 200.26C851.156 194.444 839.343 195.871 820 207.26C804.044 219.072 797.766 226.612 791.5 241.76C767.301 213.459 751.926 209.935 720.5 232.26C711.601 205.168 695.27 193.818 675 190.26C646.647 188.128 632.579 196.592 616 218.26C595.691 193.238 581.713 188.871 552.5 196.26C549.208 150.953 528.245 124.941 496.5 114.76C446.765 106.433 422.836 123.602 401 163.76C376.064 156.867 364.436 160.243 347 176.26C337.848 150.85 328.522 141.217 302.5 134.26C277.089 131.748 265.546 137.093 248 154.26C232.824 126.671 219.555 117.78 187 114.76C179.342 63.2995 166.538 38.8194 120 12.2603Z" fill="url(#paint0_linear_2356_8)"/>
<defs>
<linearGradient id="paint0_linear_2356_8" x1="638" y1="-144" x2="638.25" y2="334.76" gradientUnits="userSpaceOnUse">
<stop offset="0.0203791" stop-color="#FDF8E2"/>
<stop offset="0.484713" stop-color="#A7A3AC"/>
<stop offset="0.639496" stop-color="#7B7991"/>
<stop offset="0.802885" stop-color="#605D80"/>
<stop offset="0.9" stop-color="#504e76"/>
<stop offset="1" stop-color="#504e76"/>
</linearGradient>
</defs>
</svg>
