<svg width="1280" height="328" viewBox="0 0 1280 328" fill="none" xmlns="http://www.w3.org/2000/svg">
<path d="M6.86794 328H545.997C546.196 301.967 537.588 289.972 511.513 271.894C476.092 257.066 457.152 259.843 426.564 286.137C427.729 263.111 424.586 251.625 414.789 232.709C397.285 205.282 383.146 195.96 345.821 196.195C328.495 196.917 317.168 203.258 295.356 220.241C295.384 207.737 296.647 199.916 288.628 189.064C278.486 177.515 272.635 177.757 260.872 182.837C253.719 142.457 245.995 121.377 229.753 84.8741C214.338 53.6085 188.93 42.9615 156.579 42.1267C107.896 40.9267 83.683 47.9324 47.2395 76.859C19.9868 104.135 12.3705 123.279 6.86794 161.463C3.13642 196.443 6.74504 215.364 16.1198 248.739C-7.75508 249.455 -14.4613 262.331 -15 287.918C-13.0871 306.482 -6.14938 314.32 6.86794 328Z" fill="url(#paint0_linear_2420_2)"/>
<path d="M1355.28 264H435C441.449 246.931 446.615 236.122 471.134 217.042C488.822 205.643 501.547 204.57 524.205 204.52C527.006 179.428 531.666 166.351 546.789 145.041C570.947 115.24 585.204 103.699 612.281 96.5178C647.489 88.9189 667.299 89.9817 702.615 102.779C744.352 127.444 758.142 149.301 765.849 204.52C775.905 198.336 782.086 196.827 794.079 198.259C806.419 202.315 810.322 206.339 816.663 213.912C829.165 196.315 836.814 187.743 853.925 179.476C873.994 173.534 884.794 174.243 903.609 184.172C913.715 105.479 929.872 71.2889 977.006 27.6466C1020.05 -4.25964 1044.62 -5.66366 1088.79 8.86351C1128.75 24.8896 1146.01 44.4282 1172.35 87.1263C1189.84 62.9007 1202.03 58.0131 1228.81 68.3432C1251.07 79.8623 1262.69 102.297 1273.98 134.084C1308.26 109.862 1328.05 121.298 1350.76 160.686C1362.56 181.109 1373.56 225.192 1355.28 264Z" fill="url(#paint1_linear_2420_2)" fill-opacity="0.8"/>
<defs>
<linearGradient id="paint0_linear_2420_2" x1="358" y1="-17.5" x2="315" y2="328" gradientUnits="userSpaceOnUse">
<stop stop-color="#FCDD9D"/>
<stop offset="0.226074" stop-color="#FAE2B1" stop-opacity="0.75"/>
<stop offset="0.68838" stop-color="#F9E8C5" stop-opacity="0.5"/>
<stop offset="1" stop-color="#F5F2ED" stop-opacity="0"/>
</linearGradient>
<linearGradient id="paint1_linear_2420_2" x1="877.5" y1="325" x2="874.777" y2="-74.7326" gradientUnits="userSpaceOnUse">
<stop offset="0.173949" stop-color="#F5F2ED" stop-opacity="0.2"/>
<stop offset="0.384384" stop-color="#F9E8C5" stop-opacity="0.6"/>
<stop offset="0.667524" stop-color="#FCDD9D"/>
</linearGradient>
</defs>
</svg>
