<svg width="1276" height="471" viewBox="0 0 1276 471" fill="none" xmlns="http://www.w3.org/2000/svg">
<path d="M-2 8.90365V479.904L830.5 480.404V343.904C805.27 325.135 790.321 323.114 762.5 330.904C762.36 321.501 760.06 316.812 750 309.904C736.411 306.501 729.106 307.548 716.5 313.404C715.208 309.736 714.277 307.662 711.5 303.904C701.214 297.265 694.49 297.168 682 298.904C671.036 284.462 663.336 279.188 646.5 275.904C627.916 274.234 618.852 278.591 604 291.404C594.437 283.602 588.134 281.577 575 282.904C576.781 265.074 569.703 255.432 553.5 244.904C532.527 235.441 521.095 237.513 501 248.904C482.066 229.392 470.177 224.137 444.5 223.904C449.026 174.534 439.496 153.549 392.5 132.904C347.295 121.054 315.28 132.267 285 181.404C276.961 174.353 271.647 171.951 261 170.904C253.352 105.722 233.01 73.4517 161 25.4036C99.7044 -3.22812 63.9299 -6.0381 -2 8.90365Z" fill="url(#paint0_linear_2360_2)"/>
<path d="M1185.5 29C1219.79 9.05956 1239.81 0.989854 1279 0V474H528V348C531.141 333.089 533.281 324.883 552.5 316.5C569.739 312.511 578.506 315.154 593 326.5C600.057 320.736 603.73 317.059 616 319.5C620.021 307.802 622.802 301.361 637 292C654.876 286.268 665.054 287.902 683.5 297.5C697.013 277.602 708.547 274.15 734 277.5C739.653 256.865 747.032 248.221 772 241C798.631 240.264 811.018 244.951 825 269.5C832.655 263.144 837.929 260.67 848 257C830.653 213.859 830.821 188.972 853 143C883.996 100.784 907.391 84.6164 965 75.5C1019.52 71.8793 1045.69 79.9754 1083.5 115.5C1103.43 107.141 1115 105.879 1136.5 109.5C1145.03 70.8602 1156.53 53.7604 1185.5 29Z" fill="url(#paint1_linear_2360_2)"/>
<defs>
<linearGradient id="paint0_linear_2360_2" x1="414.25" y1="0" x2="207.5" y2="505" gradientUnits="userSpaceOnUse">
<stop offset="0.252155" stop-color="#FDF8E2"/>
<stop offset="0.591346" stop-color="#FDEBC0"/>
<stop offset="0.667358" stop-color="#FCEABE"/>
<stop offset="0.778964" stop-color="#FCE4AE"/>
<stop offset="1" stop-color="#FCDD9D"/>
</linearGradient>
<linearGradient id="paint1_linear_2360_2" x1="903.5" y1="0" x2="1064.5" y2="509" gradientUnits="userSpaceOnUse">
<stop offset="0.403065" stop-color="#FDF8E2"/>
<stop offset="0.665552" stop-color="#FDEBC0"/>
<stop offset="0.811378" stop-color="#FCE4AE"/>
<stop offset="1" stop-color="#FCDD9D"/>
</linearGradient>
</defs>
</svg>
