<svg width="1279" height="277" viewBox="0 0 1279 277" fill="none" xmlns="http://www.w3.org/2000/svg">
<path d="M1156.5 12.2603C1203.81 -8.68838 1232.9 -2.42843 1278.5 28.2603V334.76H-2V83.7602C43.5302 81.6414 63.4156 91.6646 95 117.26C122.839 144.965 134.351 163.593 145 204.26C170.691 194.811 184.403 196.46 208 208.76C225.754 185.715 239.014 178.595 270.5 179.76C292.025 145.733 312.77 134.96 356.5 147.76C378.617 156.758 394.985 170.054 402.5 200.26C425.344 194.444 437.157 195.871 456.5 207.26C472.456 219.072 478.734 226.612 485 241.76C509.199 213.459 524.574 209.935 556 232.26C564.899 205.168 581.23 193.818 601.5 190.26C629.853 188.128 643.921 196.592 660.5 218.26C680.809 193.238 694.787 188.871 724 196.26C727.292 150.953 748.255 124.941 780 114.76C829.735 106.433 853.664 123.602 875.5 163.76C900.436 156.867 912.064 160.243 929.5 176.26C938.652 150.85 947.978 141.217 974 134.26C999.411 131.748 1010.95 137.093 1028.5 154.26C1043.68 126.671 1056.95 117.78 1089.5 114.76C1097.16 63.2995 1109.96 38.8194 1156.5 12.2603Z" fill="#FBF8F2"/>
</svg>
